<svg xmlns="http://www.w3.org/2000/svg" width="27.277" height="26.45" viewBox="0 0 27.277 26.45">
  <g id="face-glasses-duotone" opacity="0.663">
    <path id="Path_3792" data-name="Path 3792" d="M58.016,9.919H55.97v3.306a2.482,2.482,0,0,1-2.48,2.48H48.531a2.482,2.482,0,0,1-2.48-2.48V9.919H44.4v3.306a2.482,2.482,0,0,1-2.48,2.48H36.959a2.48,2.48,0,0,1-2.48-2.48V9.919H32.433a13.225,13.225,0,1,0,25.583,0Zm-6.861,8.793a7.761,7.761,0,0,1-11.861-.044.827.827,0,0,1,1.269-1.059,5.945,5.945,0,0,0,4.661,2.225,6.053,6.053,0,0,0,4.66-2.181A.828.828,0,0,1,51.156,18.711Zm-14.2-12.1h4.959a2.476,2.476,0,0,1,2.327,1.653H46.2a2.478,2.478,0,0,1,2.328-1.653h4.959a2.476,2.476,0,0,1,2.327,1.653h1.661a13.217,13.217,0,0,0-24.509,0h1.661A2.477,2.477,0,0,1,36.959,6.613Z" transform="translate(-31.587)" fill="#d3d3d3"/>
    <path id="Path_3793" data-name="Path 3793" d="M32.679,131.72a1.24,1.24,0,1,0,1.24,1.24A1.237,1.237,0,0,0,32.679,131.72Zm17.771-2.066H48.231A2.477,2.477,0,0,0,45.9,128H40.945a2.476,2.476,0,0,0-2.327,1.653H36.662A2.483,2.483,0,0,0,34.332,128H29.373a2.476,2.476,0,0,0-2.327,1.653H24.827a.827.827,0,1,0,0,1.653h2.066v3.306a2.482,2.482,0,0,0,2.48,2.48h4.959a2.482,2.482,0,0,0,2.48-2.48v-3.306h1.653v3.306a2.482,2.482,0,0,0,2.48,2.48H45.9a2.482,2.482,0,0,0,2.48-2.48v-3.306H50.45a.827.827,0,1,0,0-1.653Zm-15.292,4.959a.828.828,0,0,1-.827.827H29.373a.829.829,0,0,1-.827-.827V130.48a.829.829,0,0,1,.827-.827h4.959a.828.828,0,0,1,.827.827Zm11.572,0a.828.828,0,0,1-.827.827H40.945a.828.828,0,0,1-.827-.827V130.48a.829.829,0,0,1,.827-.827H45.9a.828.828,0,0,1,.827.827ZM42.6,131.72a1.24,1.24,0,1,0,1.24,1.24A1.24,1.24,0,0,0,42.6,131.72Z" transform="translate(-24 -121.387)" fill="#696969"/>
  </g>
</svg>
