<svg id="cubes-duotone" xmlns="http://www.w3.org/2000/svg" width="31.406" height="27.917" viewBox="0 0 31.406 27.917">
  <path id="Path_3735" data-name="Path 3735" d="M30.272,13.991l-5.845-2.225V4.3A1.77,1.77,0,0,0,23.3,2.647L16.927.225a3.444,3.444,0,0,0-2.45,0L8.113,2.648A1.77,1.77,0,0,0,6.979,4.3v7.459L1.132,13.991A1.769,1.769,0,0,0,0,15.649v7.961a1.77,1.77,0,0,0,1.132,1.658L7.5,27.689a3.412,3.412,0,0,0,1.224.228,3.446,3.446,0,0,0,1.225-.225L15.7,25.5l5.752,2.189a3.44,3.44,0,0,0,2.452,0l6.369-2.422a1.772,1.772,0,0,0,1.13-1.66V15.649A1.77,1.77,0,0,0,30.272,13.991Zm-21.548,3.7L3.409,15.921,8.38,14.029l5.293,2.014ZM14.395,23.2l-4.362,1.66V20.016l4.362-1.454ZM10.387,4.582l5.021-1.91a.827.827,0,0,1,.59,0l5.02,1.91L15.7,6.352Zm11.423,2.5v4.392a3.4,3.4,0,0,0-.353.1l-4.445,1.687V8.675Zm.872,10.616-4.95-1.65,5.292-2.014L28,15.922Zm6.107,5.338-4.8,1.825V20.016l4.8-1.6Z" transform="translate(0 0)" fill="#a5ddf5"/>
  <path id="Path_3736" data-name="Path 3736" d="M184,147.581l4.362-1.66v-4.638L184,142.737Zm6.979-11.6,4.445-1.691c.113-.043.233-.064.353-.1V129.8l-4.8,1.6Zm6.979,6.761v4.843l4.8-1.825V141.14Z" transform="translate(-173.967 -122.723)" fill="#34a3d4"/>
</svg>
