<svg id="address-book-duotone" xmlns="http://www.w3.org/2000/svg" width="25.68" height="27.392" viewBox="0 0 25.68 27.392">
  <path id="Path_3741" data-name="Path 3741" d="M51.688,0H34.568A2.568,2.568,0,0,0,32,2.568V24.824a2.568,2.568,0,0,0,2.568,2.568h17.12a2.568,2.568,0,0,0,2.568-2.568V2.568A2.568,2.568,0,0,0,51.688,0Zm-8.56,6.848A3.424,3.424,0,1,1,39.7,10.272,3.424,3.424,0,0,1,43.128,6.848Zm5.136,13.7H37.992a.859.859,0,0,1-.856-.856,4.279,4.279,0,0,1,4.28-4.28H44.84a4.28,4.28,0,0,1,4.28,4.28A.859.859,0,0,1,48.264,20.544Z" transform="translate(-32)" fill="#a5ddf5"/>
  <path id="Path_3742" data-name="Path 3742" d="M133.992,74.272a3.424,3.424,0,1,0-3.424-3.424A3.424,3.424,0,0,0,133.992,74.272Zm1.712,1.712H132.28a4.279,4.279,0,0,0-4.28,4.28.859.859,0,0,0,.856.856h10.272a.856.856,0,0,0,.856-.856A4.279,4.279,0,0,0,135.7,75.984ZM147.688,64H145.12v5.136h2.568a.858.858,0,0,0,.856-.856V64.856A.857.857,0,0,0,147.688,64Zm0,13.7H145.12v5.136h2.568a.856.856,0,0,0,.856-.856V78.552A.859.859,0,0,0,147.688,77.7Zm0-6.848H145.12v5.136h2.568a.859.859,0,0,0,.856-.856V71.7A.858.858,0,0,0,147.688,70.848Z" transform="translate(-122.864 -60.576)" fill="#34a3d4"/>
</svg>
